<svg width="42" height="20" viewBox="0 0 42 20" fill="none" xmlns="http://www.w3.org/2000/svg">
<path d="M0 10C0 4.47715 4.47715 0 10 0H32C37.5228 0 42 4.47715 42 10C42 15.5228 37.5228 20 32 20H10C4.47715 20 0 15.5228 0 10Z" fill="#666666"/>
<path d="M13.67 6.98V8.35H11.81V14H10.1V8.35H8.24V6.98H13.67ZM20.2282 8.42L16.7282 16.65H14.8882L16.1682 13.81L13.8982 8.42H15.8082L17.0982 11.91L18.3782 8.42H20.2282ZM22.5566 9.21C22.7232 8.95 22.9532 8.74 23.2466 8.58C23.5399 8.42 23.8832 8.34 24.2766 8.34C24.7366 8.34 25.1532 8.45667 25.5266 8.69C25.8999 8.92333 26.1932 9.25667 26.4066 9.69C26.6266 10.1233 26.7366 10.6267 26.7366 11.2C26.7366 11.7733 26.6266 12.28 26.4066 12.72C26.1932 13.1533 25.8999 13.49 25.5266 13.73C25.1532 13.9633 24.7366 14.08 24.2766 14.08C23.8899 14.08 23.5466 14 23.2466 13.84C22.9532 13.68 22.7232 13.4733 22.5566 13.22V16.66H20.8466V8.42H22.5566V9.21ZM24.9966 11.2C24.9966 10.7733 24.8766 10.44 24.6366 10.2C24.4032 9.95333 24.1132 9.83 23.7666 9.83C23.4266 9.83 23.1366 9.95333 22.8966 10.2C22.6632 10.4467 22.5466 10.7833 22.5466 11.21C22.5466 11.6367 22.6632 11.9733 22.8966 12.22C23.1366 12.4667 23.4266 12.59 23.7666 12.59C24.1066 12.59 24.3966 12.4667 24.6366 12.22C24.8766 11.9667 24.9966 11.6267 24.9966 11.2ZM32.8937 11.12C32.8937 11.28 32.8837 11.4467 32.8637 11.62H28.9937C29.0203 11.9667 29.1303 12.2333 29.3237 12.42C29.5237 12.6 29.767 12.69 30.0537 12.69C30.4803 12.69 30.777 12.51 30.9437 12.15H32.7637C32.6703 12.5167 32.5003 12.8467 32.2537 13.14C32.0137 13.4333 31.7103 13.6633 31.3437 13.83C30.977 13.9967 30.567 14.08 30.1137 14.08C29.567 14.08 29.0803 13.9633 28.6537 13.73C28.227 13.4967 27.8937 13.1633 27.6537 12.73C27.4137 12.2967 27.2937 11.79 27.2937 11.21C27.2937 10.63 27.4103 10.1233 27.6437 9.69C27.8837 9.25667 28.217 8.92333 28.6437 8.69C29.0703 8.45667 29.5603 8.34 30.1137 8.34C30.6537 8.34 31.1337 8.45333 31.5537 8.68C31.9737 8.90667 32.3003 9.23 32.5337 9.65C32.7737 10.07 32.8937 10.56 32.8937 11.12ZM31.1437 10.67C31.1437 10.3767 31.0437 10.1433 30.8437 9.97C30.6437 9.79667 30.3937 9.71 30.0937 9.71C29.807 9.71 29.5637 9.79333 29.3637 9.96C29.1703 10.1267 29.0503 10.3633 29.0037 10.67H31.1437Z" fill="white"/>
</svg>
